# xmcd CD database file
#
# Track frame offsets:
#	150
#	24302
#	51859
#	83060
#	106059
#	130905
#	157525
#	172013
#	198902
#	223980
#	249229
#	275099
#
# Disc length: 4022 seconds
#
# Revision: 0
# Processed by: cddbd v1.5.2PL0 Copyright (c) Steve Scherf et al.
# Submitted via: CDex 1.51
#
DISCID=9b0fb40c
DTITLE=Enrico Pieranunzi, Marc Johnson, Joey Baron - Ballads
DYEAR=2006
DGENRE=Jazz
TTITLE0=Mi Sono Innamorato Di Te
TTITLE1=These Foolish Things
TTITLE2=When I Think Of You
TTITLE3=A Flower Is A Lovesome Thing
TTITLE4=The Heart Of A Child
TTITLE5=Sundays
TTITLE6=Thought
TTITLE7=Night After Night
TTITLE8=When All Was Chet
TTITLE9=Miradas
TTITLE10=Cabiria's Dream
TTITLE11=Che Vuole Questa Musica Stasera
EXTD=YEAR: 2006
EXTT0=
EXTT1=
EXTT2=
EXTT3=
EXTT4=
EXTT5=
EXTT6=
EXTT7=
EXTT8=
EXTT9=
EXTT10=
EXTT11=
PLAYORDER=
